<svg width="144" height="103" viewBox="0 0 144 103" fill="none" xmlns="http://www.w3.org/2000/svg">
<path d="M58.3333 27.1667V21.125M58.3333 54.3542V48.3125M58.3333 81.5417V75.5M25.1333 3H119.2C126.947 3 130.821 3 133.78 4.317C136.383 5.47547 138.499 7.32399 139.826 9.59761C141.333 12.1824 141.333 15.566 141.333 22.3333V30.1875C127.963 30.1875 117.125 39.6548 117.125 51.3333C117.125 63.0119 127.963 72.4792 141.333 72.4792V80.3333C141.333 87.1006 141.333 90.4843 139.826 93.0691C138.499 95.3427 136.383 97.1912 133.78 98.3497C130.821 99.6667 126.947 99.6667 119.2 99.6667H25.1333C17.3859 99.6667 13.5122 99.6667 10.5531 98.3497C7.95022 97.1912 5.83399 95.3427 4.50774 93.0691C3 90.4843 3 87.1006 3 80.3333V72.4792C16.3699 72.4792 27.2083 63.0119 27.2083 51.3333C27.2083 39.6548 16.3699 30.1875 3 30.1875V22.3333C3 15.566 3 12.1824 4.50774 9.59761C5.83399 7.32399 7.95022 5.47547 10.5531 4.317C13.5122 3 17.3859 3 25.1333 3Z" stroke="white" stroke-width="5" stroke-linecap="round" stroke-linejoin="round"/>
</svg>
